# xmcd
# 
# Track frame offsets:
#     150
#     19985
#     42805
#     79830
#     111902
#     127302
#     147922
#     175812
# 
# Disc length: 2855
# 
# Revision: 0
# Processed by: cddbd v1.5.2PL0 Copyright (c) Steve Scherf et al.
# Submitted via: fre:ac v1.0.17
# 
DISCID=6e0b2508
DTITLE=Jazz Passengers - Plain Old Joe
DYEAR=1993
DGENRE=Jazz
TTITLE0=August 87th, 1998
TTITLE1=Plain Old Joe
TTITLE2=20792 Peace Talk and Reception
TTITLE3=Honer B. Halfsteppin'
TTITLE4=Inzane
TTITLE5=If I Were A Bell
TTITLE6=Robbie
TTITLE7=Blues For Helen
EXTD=
EXTT0=
EXTT1=
EXTT2=
EXTT3=
EXTT4=
EXTT5=
EXTT6=
EXTT7=
PLAYORDER=
